<svg id="svg" xmlns="http://www.w3.org/2000/svg" xmlns:xlink="http://www.w3.org/1999/xlink" width="400" height="400" viewBox="0, 0, 400,400" version="1.1"><g id="svgg"><path id="path0" d="M87.328 0.752 C 86.990 2.045,84.546 2.380,82.353 1.434 C 81.899 1.238,81.641 1.401,81.490 1.977 C 81.316 2.641,80.954 2.800,79.609 2.800 C 78.627 2.800,77.684 3.058,77.314 3.429 C 76.917 3.826,76.334 3.970,75.734 3.819 C 75.086 3.657,74.708 3.775,74.548 4.190 C 74.412 4.547,73.822 4.800,73.129 4.800 C 72.476 4.800,71.659 5.084,71.312 5.431 C 70.965 5.778,70.354 5.977,69.955 5.872 C 69.556 5.768,69.021 5.934,68.766 6.241 C 68.511 6.549,67.803 6.800,67.194 6.800 C 66.578 6.800,65.983 7.066,65.855 7.400 C 65.729 7.730,65.259 8.000,64.813 8.000 C 64.366 8.000,64.000 8.180,64.000 8.400 C 64.000 8.620,63.662 8.800,63.249 8.800 C 62.836 8.800,62.267 9.078,61.985 9.418 C 61.703 9.758,61.231 9.944,60.936 9.831 C 60.641 9.718,60.400 9.804,60.400 10.022 C 60.400 10.241,59.995 10.590,59.500 10.799 C 59.005 11.007,57.700 11.720,56.600 12.383 C 55.500 13.047,54.338 13.715,54.017 13.869 C 53.456 14.139,52.055 15.258,50.975 16.300 C 50.690 16.575,50.309 16.800,50.129 16.801 C 49.948 16.801,48.810 17.695,47.600 18.787 C 46.390 19.879,45.234 20.779,45.032 20.786 C 44.429 20.809,33.659 31.635,32.086 33.800 C 31.287 34.900,30.221 36.196,29.717 36.681 C 29.212 37.165,28.800 37.681,28.800 37.827 C 28.800 37.973,28.170 38.951,27.400 40.000 C 26.630 41.049,26.000 42.089,26.000 42.311 C 26.000 42.533,25.758 42.807,25.463 42.920 C 25.168 43.034,24.623 43.728,24.252 44.463 C 23.465 46.024,22.912 46.949,21.778 48.600 C 21.325 49.260,20.644 50.467,20.266 51.283 C 19.888 52.099,19.403 52.874,19.189 53.007 C 18.975 53.139,18.800 53.597,18.800 54.024 C 18.800 54.451,18.640 54.800,18.443 54.800 C 18.247 54.800,17.974 55.250,17.836 55.800 C 17.698 56.350,17.408 56.800,17.192 56.800 C 16.977 56.800,16.800 57.235,16.800 57.767 C 16.800 58.298,16.665 58.793,16.500 58.867 C 16.061 59.062,14.800 61.568,14.800 62.245 C 14.800 62.564,14.525 62.931,14.188 63.060 C 13.801 63.208,13.664 63.572,13.816 64.049 C 13.969 64.531,13.829 64.891,13.428 65.045 C 13.066 65.183,12.800 65.756,12.800 66.394 C 12.800 67.003,12.541 67.717,12.224 67.980 C 11.907 68.243,11.737 68.692,11.847 68.978 C 11.956 69.263,11.766 69.777,11.423 70.120 C 11.080 70.463,10.800 71.211,10.800 71.784 C 10.800 72.357,10.538 72.926,10.217 73.049 C 9.811 73.205,9.705 73.623,9.866 74.430 C 10.035 75.277,9.924 75.654,9.449 75.837 C 9.025 75.999,8.800 76.561,8.800 77.455 C 8.800 78.313,8.572 78.912,8.191 79.059 C 7.742 79.231,7.645 79.635,7.824 80.585 C 8.001 81.528,7.873 82.070,7.352 82.591 C 6.868 83.075,6.673 83.787,6.746 84.800 C 6.822 85.854,6.671 86.364,6.232 86.532 C 5.741 86.721,5.664 87.155,5.863 88.608 C 6.086 90.232,6.021 90.470,5.299 90.658 C 4.563 90.851,4.503 91.101,4.692 93.180 C 4.893 95.398,4.861 95.498,3.875 95.745 C 2.895 95.991,2.875 96.053,3.422 97.101 C 4.097 98.395,4.166 100.142,3.586 101.226 C 2.940 102.433,2.071 102.163,1.889 100.700 C 1.762 99.672,1.715 99.787,1.664 101.251 C 1.622 102.473,1.804 103.271,2.200 103.600 C 3.327 104.535,3.025 109.834,1.800 110.637 C 0.712 111.350,0.512 112.352,1.300 113.141 C 1.984 113.827,1.954 130.206,1.267 130.893 C 0.704 131.456,0.657 134.760,1.200 135.600 C 1.413 135.930,1.591 136.043,1.594 135.851 C 1.597 135.659,1.870 135.726,2.200 136.000 C 3.059 136.713,3.059 143.684,2.200 144.543 C 1.846 144.897,1.626 145.770,1.664 146.671 C 1.726 148.149,1.733 148.156,1.889 146.900 C 2.187 144.500,4.000 145.743,4.000 148.348 C 4.000 150.043,3.303 151.711,2.739 151.362 C 2.444 151.180,2.385 151.252,2.577 151.563 C 2.742 151.830,3.310 152.214,3.839 152.415 C 5.015 152.862,5.237 155.906,4.172 156.971 C 3.827 157.316,3.622 158.004,3.718 158.499 L 3.891 159.400 3.946 158.500 C 3.983 157.888,4.253 157.600,4.792 157.600 C 5.800 157.600,6.280 159.322,5.701 160.856 C 5.337 161.822,5.387 162.005,6.077 162.225 C 6.743 162.436,6.852 162.763,6.737 164.205 C 6.630 165.555,6.763 166.034,7.347 166.399 C 7.924 166.760,8.044 167.175,7.873 168.227 C 7.712 169.217,7.823 169.685,8.279 169.940 C 8.717 170.185,8.850 170.678,8.720 171.567 C 8.576 172.542,8.715 172.941,9.309 173.258 C 9.897 173.573,10.030 173.948,9.860 174.801 C 9.705 175.577,9.816 175.997,10.217 176.151 C 10.554 176.281,10.800 176.898,10.800 177.616 C 10.800 178.299,11.083 179.140,11.429 179.486 C 11.823 179.880,11.970 180.466,11.821 181.058 C 11.651 181.738,11.754 182.000,12.192 182.000 C 12.595 182.000,12.800 182.388,12.800 183.151 C 12.800 183.784,13.074 184.529,13.409 184.807 C 13.761 185.100,13.918 185.627,13.781 186.058 C 13.632 186.531,13.775 186.892,14.172 187.045 C 14.518 187.177,14.800 187.729,14.800 188.271 C 14.800 188.814,15.080 189.537,15.423 189.880 C 15.766 190.223,15.956 190.737,15.847 191.022 C 15.737 191.308,15.907 191.757,16.224 192.020 C 16.541 192.283,16.800 192.849,16.800 193.278 C 16.800 193.706,17.084 194.341,17.431 194.688 C 17.778 195.035,17.978 195.641,17.875 196.034 C 17.772 196.427,17.939 196.844,18.244 196.962 C 18.550 197.079,18.800 197.631,18.800 198.187 C 18.800 198.744,18.945 199.200,19.123 199.200 C 19.485 199.200,20.800 201.995,20.800 202.763 C 20.800 203.035,21.080 203.537,21.423 203.880 C 21.766 204.223,21.949 204.757,21.830 205.067 C 21.711 205.377,21.880 205.733,22.207 205.858 C 22.533 205.983,22.800 206.497,22.800 207.000 C 22.800 207.503,23.070 208.018,23.400 208.145 C 23.730 208.271,24.000 208.730,24.000 209.164 C 24.000 209.598,24.180 210.064,24.400 210.200 C 24.620 210.336,24.800 210.719,24.800 211.052 C 24.800 211.385,25.072 211.929,25.404 212.261 C 25.736 212.593,25.918 213.010,25.808 213.187 C 25.698 213.364,25.877 213.732,26.204 214.004 C 26.532 214.276,26.800 214.817,26.800 215.206 C 26.800 215.596,27.070 216.018,27.400 216.145 C 27.730 216.271,28.000 216.741,28.000 217.187 C 28.000 217.634,28.180 218.000,28.400 218.000 C 28.620 218.000,28.800 218.450,28.800 219.000 C 28.800 219.550,28.967 220.000,29.171 220.000 C 29.598 220.000,30.800 222.259,30.800 223.061 C 30.800 223.358,30.977 223.600,31.192 223.600 C 31.408 223.600,31.698 224.050,31.836 224.600 C 31.974 225.150,32.247 225.600,32.443 225.600 C 32.640 225.600,32.800 225.960,32.800 226.400 C 32.800 226.840,32.977 227.200,33.192 227.200 C 33.408 227.200,33.698 227.650,33.836 228.200 C 33.974 228.750,34.247 229.200,34.443 229.200 C 34.640 229.200,34.800 229.549,34.800 229.976 C 34.800 230.403,34.975 230.861,35.189 230.993 C 35.403 231.126,35.888 231.901,36.266 232.717 C 36.644 233.533,37.369 234.757,37.877 235.438 C 38.385 236.119,38.800 236.954,38.800 237.295 C 38.800 237.636,39.085 238.024,39.433 238.157 C 39.782 238.291,39.997 238.609,39.912 238.864 C 39.827 239.120,40.172 239.776,40.679 240.323 C 41.185 240.869,41.600 241.538,41.600 241.809 C 41.600 242.080,41.870 242.526,42.200 242.800 C 42.530 243.074,42.800 243.617,42.800 244.006 C 42.800 244.396,43.070 244.818,43.400 244.945 C 43.730 245.071,44.000 245.451,44.000 245.787 C 44.000 246.124,44.180 246.400,44.400 246.400 C 44.620 246.400,44.800 246.760,44.800 247.200 C 44.800 247.640,44.972 248.000,45.181 248.000 C 45.391 248.000,45.857 248.622,46.218 249.382 C 46.579 250.141,47.127 250.974,47.437 251.231 C 47.747 251.488,48.000 251.860,48.000 252.058 C 48.000 252.507,50.093 255.753,50.500 255.933 C 50.665 256.007,50.800 256.260,50.800 256.496 C 50.800 256.731,51.250 257.514,51.800 258.236 C 52.350 258.957,52.800 259.695,52.800 259.877 C 52.800 260.059,53.250 260.693,53.800 261.287 C 54.350 261.880,54.800 262.484,54.800 262.629 C 54.800 262.774,55.430 263.751,56.200 264.800 C 56.970 265.849,57.600 266.899,57.600 267.134 C 57.600 267.368,57.844 267.704,58.142 267.880 C 58.440 268.056,59.135 268.923,59.687 269.806 C 60.239 270.689,60.986 271.656,61.346 271.955 C 61.706 272.254,62.000 272.720,62.000 272.991 C 62.000 273.262,62.472 273.993,63.049 274.616 C 63.627 275.238,64.392 276.226,64.749 276.810 C 65.667 278.309,67.749 281.126,69.290 282.955 C 70.010 283.810,70.672 284.710,70.761 284.955 C 70.849 285.200,71.794 286.360,72.861 287.532 C 73.927 288.705,74.800 289.839,74.800 290.051 C 74.800 290.264,75.215 290.835,75.723 291.319 C 76.231 291.804,77.170 292.920,77.809 293.800 C 78.448 294.680,79.653 296.161,80.486 297.091 C 81.319 298.021,82.000 298.925,82.000 299.100 C 82.000 299.274,82.829 300.314,83.843 301.409 C 84.857 302.504,86.153 304.030,86.724 304.800 C 87.296 305.570,88.948 307.460,90.397 309.000 C 91.846 310.540,93.745 312.695,94.616 313.788 C 98.999 319.289,124.692 344.983,130.212 349.386 C 131.305 350.258,133.370 352.065,134.800 353.402 C 136.230 354.738,138.245 356.504,139.278 357.325 C 140.311 358.146,141.692 359.353,142.347 360.009 C 143.002 360.664,143.718 361.200,143.937 361.200 C 144.156 361.200,145.295 362.059,146.468 363.110 C 147.640 364.160,149.314 365.549,150.186 366.196 C 151.058 366.842,152.060 367.648,152.413 367.986 C 153.001 368.549,154.921 369.996,158.142 372.300 C 158.834 372.795,159.920 373.605,160.555 374.100 C 161.190 374.595,161.902 375.072,162.137 375.161 C 162.371 375.249,162.896 375.631,163.302 376.010 C 163.709 376.388,165.334 377.576,166.914 378.649 C 168.495 379.722,170.139 380.915,170.569 381.300 C 170.999 381.685,171.544 382.000,171.780 382.000 C 172.015 382.000,172.665 382.405,173.223 382.900 C 173.781 383.395,174.705 384.070,175.276 384.400 C 175.848 384.730,177.328 385.675,178.565 386.500 C 179.803 387.325,180.983 388.000,181.188 388.000 C 181.393 388.000,181.704 388.235,181.880 388.522 C 182.056 388.808,182.875 389.357,183.700 389.740 C 184.525 390.124,185.200 390.609,185.200 390.819 C 185.200 391.028,185.478 391.200,185.817 391.200 C 186.157 391.200,186.920 391.650,187.513 392.200 C 188.107 392.750,188.889 393.200,189.253 393.200 C 189.617 393.200,190.018 393.470,190.145 393.800 C 190.271 394.130,190.741 394.400,191.187 394.400 C 191.634 394.400,192.000 394.538,192.000 394.706 C 192.000 394.874,192.720 395.323,193.600 395.704 C 194.480 396.086,195.200 396.578,195.200 396.799 C 195.200 397.019,195.549 397.200,195.976 397.200 C 196.403 397.200,196.861 397.375,196.993 397.589 C 197.564 398.512,200.074 399.346,200.841 398.867 C 201.252 398.610,201.862 398.400,202.195 398.400 C 202.528 398.400,202.800 398.228,202.800 398.019 C 202.800 397.809,203.422 397.343,204.182 396.982 C 204.941 396.621,205.774 396.073,206.031 395.763 C 206.288 395.453,206.836 395.200,207.249 395.200 C 207.662 395.200,208.000 395.014,208.000 394.787 C 208.000 394.561,208.315 394.257,208.700 394.113 C 209.293 393.891,212.575 391.931,215.422 390.099 C 215.850 389.824,216.560 389.436,217.000 389.237 C 217.440 389.039,218.197 388.500,218.683 388.038 C 219.169 387.577,219.762 387.200,220.001 387.200 C 220.240 387.200,220.920 386.750,221.513 386.200 C 222.107 385.650,222.741 385.200,222.923 385.200 C 223.105 385.200,223.843 384.750,224.564 384.200 C 225.286 383.650,226.001 383.200,226.155 383.200 C 226.309 383.200,226.920 382.750,227.513 382.200 C 228.107 381.650,228.776 381.200,229.000 381.200 C 229.224 381.200,229.893 380.750,230.487 380.200 C 231.080 379.650,231.828 379.200,232.149 379.200 C 232.470 379.200,232.793 379.051,232.867 378.870 C 232.940 378.688,235.070 377.043,237.600 375.214 C 240.130 373.386,242.290 371.779,242.400 371.645 C 242.510 371.510,242.893 371.220,243.251 371.000 C 243.609 370.780,245.299 369.520,247.008 368.200 C 248.717 366.880,250.635 365.418,251.272 364.951 C 251.908 364.484,253.097 363.491,253.914 362.744 C 254.731 361.998,256.300 360.731,257.400 359.930 C 258.500 359.128,259.850 357.982,260.400 357.382 C 260.950 356.782,262.120 355.764,263.000 355.120 C 263.880 354.475,265.680 352.924,267.000 351.672 C 268.320 350.420,271.020 348.019,273.000 346.335 C 277.106 342.843,300.910 318.928,303.592 315.600 C 304.567 314.390,306.580 312.140,308.066 310.600 C 309.552 309.060,311.291 307.080,311.932 306.200 C 312.573 305.320,313.679 304.060,314.390 303.400 C 315.102 302.740,316.366 301.203,317.200 299.984 C 318.034 298.765,319.032 297.505,319.419 297.184 C 319.805 296.863,320.853 295.612,321.746 294.403 C 322.639 293.194,323.781 291.823,324.285 291.356 C 324.788 290.890,325.200 290.334,325.200 290.122 C 325.200 289.910,325.917 288.940,326.794 287.968 C 327.671 286.996,328.391 286.055,328.394 285.878 C 328.397 285.701,328.951 284.981,329.624 284.278 C 330.296 283.575,331.192 282.342,331.613 281.537 C 332.034 280.732,332.530 280.012,332.714 279.937 C 332.899 279.862,333.838 278.720,334.800 277.400 C 335.762 276.080,336.696 274.940,336.875 274.867 C 337.054 274.793,337.200 274.505,337.200 274.225 C 337.200 273.946,337.650 273.231,338.200 272.638 C 338.750 272.044,339.200 271.469,339.200 271.360 C 339.200 271.130,342.481 266.299,342.840 266.000 C 342.972 265.890,343.584 264.990,344.198 264.000 C 344.813 263.010,345.560 262.056,345.858 261.880 C 346.156 261.704,346.400 261.391,346.400 261.184 C 346.400 260.977,347.176 259.591,348.125 258.104 C 349.074 256.617,349.969 255.085,350.113 254.700 C 350.257 254.315,350.561 254.000,350.787 254.000 C 351.014 254.000,351.200 253.792,351.200 253.538 C 351.200 253.284,351.650 252.486,352.200 251.764 C 352.750 251.043,353.200 250.323,353.200 250.164 C 353.200 250.006,353.650 249.286,354.200 248.564 C 354.750 247.843,355.200 247.083,355.200 246.876 C 355.200 246.668,355.453 246.288,355.763 246.031 C 356.073 245.774,356.621 244.941,356.982 244.182 C 357.343 243.422,357.809 242.800,358.019 242.800 C 358.228 242.800,358.400 242.513,358.400 242.162 C 358.400 241.811,358.715 241.045,359.100 240.460 C 360.259 238.699,360.781 237.841,361.205 237.000 C 361.427 236.560,362.062 235.480,362.616 234.600 C 363.170 233.720,363.815 232.505,364.051 231.900 C 364.286 231.295,364.641 230.800,364.839 230.800 C 365.038 230.800,365.200 230.459,365.200 230.043 C 365.200 229.626,365.470 229.182,365.800 229.055 C 366.130 228.929,366.400 228.459,366.400 228.013 C 366.400 227.566,366.535 227.199,366.700 227.199 C 366.865 227.198,367.333 226.388,367.740 225.399 C 368.146 224.409,368.641 223.600,368.840 223.600 C 369.038 223.600,369.200 223.259,369.200 222.843 C 369.200 222.426,369.467 221.983,369.793 221.858 C 370.129 221.729,370.285 221.365,370.152 221.019 C 370.015 220.661,370.184 220.304,370.558 220.161 C 370.911 220.025,371.200 219.596,371.200 219.206 C 371.200 218.817,371.459 218.283,371.776 218.020 C 372.093 217.757,372.254 217.286,372.135 216.974 C 372.015 216.662,372.206 216.296,372.558 216.161 C 372.911 216.025,373.200 215.596,373.200 215.206 C 373.200 214.817,373.459 214.283,373.776 214.020 C 374.093 213.757,374.254 213.286,374.135 212.974 C 374.015 212.662,374.206 212.296,374.558 212.161 C 374.911 212.025,375.200 211.503,375.200 211.000 C 375.200 210.497,375.467 209.983,375.793 209.858 C 376.120 209.733,376.291 209.382,376.175 209.079 C 376.059 208.776,376.242 208.297,376.582 208.015 C 376.922 207.733,377.200 207.264,377.200 206.972 C 377.200 206.681,377.650 205.596,378.200 204.562 C 378.750 203.527,379.200 202.460,379.200 202.189 C 379.200 201.919,379.468 201.476,379.796 201.204 C 380.123 200.932,380.309 200.576,380.208 200.414 C 380.108 200.251,380.284 199.776,380.600 199.359 C 380.916 198.942,381.180 198.279,381.187 197.887 C 381.194 197.496,381.475 197.069,381.812 196.940 C 382.167 196.804,382.334 196.422,382.210 196.032 C 382.092 195.661,382.261 195.007,382.585 194.579 C 382.909 194.151,383.180 193.479,383.187 193.087 C 383.194 192.696,383.485 192.266,383.832 192.132 C 384.206 191.989,384.386 191.591,384.274 191.160 C 384.169 190.758,384.334 190.221,384.641 189.966 C 384.949 189.711,385.200 189.096,385.200 188.600 C 385.200 188.104,385.478 187.467,385.818 187.185 C 386.158 186.903,386.346 186.436,386.235 186.147 C 386.125 185.859,386.296 185.361,386.617 185.040 C 386.938 184.719,387.200 183.989,387.200 183.416 C 387.200 182.843,387.469 182.272,387.797 182.146 C 388.188 181.996,388.316 181.605,388.168 181.016 C 388.031 180.470,388.190 179.867,388.571 179.486 C 388.917 179.140,389.200 178.324,389.200 177.671 C 389.200 176.952,389.452 176.389,389.842 176.239 C 390.293 176.066,390.412 175.704,390.242 175.025 C 390.082 174.386,390.233 173.824,390.689 173.368 C 391.101 172.957,391.330 172.219,391.259 171.538 C 391.180 170.782,391.355 170.316,391.779 170.153 C 392.264 169.967,392.359 169.586,392.170 168.583 C 391.978 167.559,392.100 167.107,392.707 166.587 C 393.329 166.054,393.452 165.562,393.301 164.217 C 393.112 162.540,393.825 161.598,394.819 162.212 C 395.010 162.330,394.905 161.925,394.586 161.313 C 393.610 159.443,393.943 157.600,395.257 157.600 C 395.895 157.600,395.957 157.467,395.614 156.826 C 394.592 154.916,395.744 151.232,396.865 152.826 C 397.306 153.451,397.276 153.299,396.337 150.109 C 395.697 147.932,396.228 146.185,397.517 146.232 C 398.545 146.269,398.587 146.081,397.787 145.024 C 397.092 144.104,396.966 138.386,397.614 137.174 C 398.129 136.212,398.677 136.181,398.949 137.100 C 399.180 137.881,399.037 136.118,398.389 130.200 C 397.929 126.005,398.165 120.075,398.817 119.423 C 399.028 119.212,399.175 117.861,399.146 116.420 C 399.116 114.979,399.013 114.205,398.918 114.700 C 398.687 115.899,398.072 115.840,397.590 114.574 C 396.938 112.860,397.094 106.186,397.800 105.600 C 398.657 104.889,398.541 104.181,397.555 104.107 C 395.974 103.988,395.465 101.049,396.607 98.642 C 396.991 97.833,397.191 97.058,397.052 96.919 C 396.914 96.780,396.800 96.883,396.800 97.147 C 396.800 97.504,396.594 97.518,396.000 97.200 C 395.000 96.665,394.900 94.029,395.826 92.617 C 396.417 91.714,396.408 91.673,395.660 91.868 C 394.593 92.147,393.893 90.779,394.217 89.050 C 394.407 88.036,394.314 87.653,393.834 87.468 C 393.384 87.296,393.200 86.698,393.200 85.413 C 393.200 84.416,393.023 83.600,392.808 83.600 C 392.170 83.600,391.894 81.745,392.394 80.811 C 392.784 80.082,392.960 80.027,393.528 80.455 C 394.100 80.886,394.124 80.876,393.692 80.392 C 393.412 80.079,392.782 79.818,392.292 79.812 C 391.567 79.802,391.375 79.538,391.269 78.400 C 391.197 77.630,390.865 76.698,390.533 76.329 C 390.187 75.945,390.033 75.327,390.173 74.885 C 390.319 74.424,390.172 73.909,389.809 73.607 C 389.474 73.329,389.200 72.661,389.200 72.122 C 389.200 71.584,388.930 70.873,388.600 70.542 C 388.222 70.165,388.090 69.581,388.243 68.971 C 388.425 68.244,388.325 68.000,387.843 68.000 C 387.419 68.000,387.200 67.650,387.200 66.971 C 387.200 66.406,386.916 65.659,386.569 65.312 C 386.222 64.965,386.022 64.359,386.125 63.966 C 386.228 63.573,386.061 63.156,385.756 63.038 C 385.450 62.921,385.200 62.481,385.200 62.062 C 385.200 61.642,384.932 61.076,384.604 60.804 C 384.277 60.532,384.098 60.164,384.208 59.987 C 384.318 59.810,384.136 59.393,383.804 59.061 C 383.472 58.729,383.200 58.325,383.200 58.163 C 383.200 57.546,381.831 54.800,381.523 54.800 C 381.345 54.800,381.200 54.462,381.200 54.049 C 381.200 53.636,380.922 53.067,380.582 52.785 C 380.242 52.503,380.056 52.031,380.169 51.736 C 380.282 51.441,380.195 51.200,379.975 51.200 C 379.755 51.200,379.459 50.885,379.317 50.500 C 379.175 50.115,378.641 49.243,378.129 48.562 C 377.618 47.881,377.200 47.046,377.200 46.705 C 377.200 46.364,376.930 45.982,376.600 45.855 C 376.270 45.729,376.000 45.420,376.000 45.168 C 376.000 44.651,372.045 39.072,371.533 38.867 C 371.350 38.793,371.200 38.511,371.200 38.239 C 371.200 37.967,370.705 37.188,370.100 36.508 C 367.722 33.836,367.200 33.182,367.200 32.872 C 367.200 32.552,356.597 21.895,354.913 20.523 C 354.425 20.125,353.300 19.270,352.413 18.623 C 351.526 17.976,350.800 17.301,350.800 17.123 C 350.800 16.945,350.611 16.800,350.380 16.800 C 350.030 16.800,345.438 13.838,344.800 13.200 C 344.564 12.964,343.342 12.270,341.171 11.138 C 340.307 10.688,339.600 10.163,339.600 9.972 C 339.600 9.781,339.359 9.718,339.064 9.831 C 338.769 9.944,338.297 9.758,338.015 9.418 C 337.733 9.078,337.164 8.800,336.751 8.800 C 336.338 8.800,336.000 8.620,336.000 8.400 C 336.000 8.180,335.623 8.000,335.163 8.000 C 334.690 8.000,334.242 7.684,334.135 7.273 C 333.995 6.738,333.656 6.589,332.850 6.707 C 332.199 6.803,331.555 6.627,331.263 6.275 C 330.992 5.949,330.450 5.767,330.057 5.869 C 329.665 5.972,329.110 5.773,328.823 5.428 C 328.537 5.083,327.778 4.800,327.138 4.800 C 326.456 4.800,325.876 4.543,325.737 4.179 C 325.567 3.736,325.185 3.628,324.399 3.800 C 323.672 3.960,323.088 3.831,322.678 3.421 C 322.316 3.058,321.364 2.800,320.391 2.800 C 319.046 2.800,318.684 2.641,318.510 1.977 C 318.359 1.401,318.101 1.238,317.647 1.434 C 315.454 2.380,313.010 2.045,312.672 0.752 C 312.497 0.085,312.288 -0.026,311.724 0.248 C 311.326 0.442,309.290 0.547,307.200 0.482 C 300.755 0.281,293.997 0.329,289.485 0.607 C 286.279 0.805,285.015 0.745,284.565 0.371 C 284.060 -0.048,283.922 0.013,283.732 0.739 C 283.440 1.855,281.969 2.219,279.780 1.718 C 278.257 1.370,278.039 1.409,277.868 2.062 C 277.727 2.600,277.299 2.800,276.286 2.800 C 275.523 2.800,274.674 3.070,274.400 3.400 C 273.817 4.103,272.350 4.190,271.720 3.560 C 271.399 3.239,271.207 3.348,271.013 3.960 C 270.825 4.552,270.413 4.800,269.616 4.800 C 268.945 4.800,268.385 5.062,268.238 5.445 C 268.083 5.850,267.699 6.015,267.210 5.887 C 266.781 5.774,266.221 5.934,265.966 6.241 C 265.711 6.549,265.186 6.800,264.800 6.800 C 264.414 6.800,263.874 7.070,263.600 7.400 C 263.326 7.730,262.775 8.000,262.375 8.000 C 261.975 8.000,261.536 8.180,261.400 8.400 C 261.264 8.620,260.803 8.800,260.376 8.800 C 259.949 8.800,259.600 8.945,259.600 9.123 C 259.600 9.301,258.835 9.779,257.900 10.186 C 256.965 10.593,256.056 11.168,255.880 11.463 C 255.704 11.758,255.209 12.000,254.780 12.000 C 254.351 12.000,254.000 12.147,254.000 12.326 C 254.000 12.506,253.316 13.037,252.479 13.508 C 251.642 13.978,250.625 14.731,250.217 15.181 C 249.809 15.632,249.267 16.000,249.011 16.000 C 248.755 16.000,247.838 16.645,246.973 17.432 C 246.108 18.220,244.500 19.553,243.400 20.394 C 238.726 23.969,229.822 34.090,226.549 39.548 C 226.081 40.329,225.496 41.035,225.249 41.117 C 225.002 41.199,224.800 41.529,224.800 41.850 C 224.800 42.171,224.431 42.830,223.979 43.314 C 223.528 43.799,222.776 44.961,222.308 45.898 C 221.841 46.834,221.310 47.600,221.129 47.600 C 220.948 47.600,220.800 47.876,220.800 48.213 C 220.800 48.549,220.520 48.933,220.177 49.064 C 219.834 49.196,219.644 49.537,219.753 49.822 C 219.863 50.108,219.693 50.557,219.376 50.820 C 219.059 51.083,218.800 51.636,218.800 52.049 C 218.800 52.462,218.665 52.804,218.500 52.808 C 218.335 52.813,217.571 54.163,216.801 55.808 C 216.032 57.454,215.267 58.800,215.101 58.800 C 214.936 58.800,214.800 59.235,214.800 59.767 C 214.800 60.298,214.665 60.793,214.500 60.867 C 214.061 61.062,212.800 63.568,212.800 64.245 C 212.800 64.564,212.525 64.931,212.188 65.060 C 211.818 65.202,211.665 65.575,211.802 66.005 C 211.926 66.396,211.751 66.992,211.414 67.329 C 211.076 67.667,210.800 68.294,210.800 68.722 C 210.800 69.151,210.541 69.717,210.224 69.980 C 209.907 70.243,209.737 70.692,209.847 70.978 C 209.956 71.263,209.766 71.777,209.423 72.120 C 209.080 72.463,208.800 73.186,208.800 73.729 C 208.800 74.271,208.526 74.820,208.190 74.948 C 207.778 75.107,207.657 75.487,207.816 76.121 C 207.966 76.720,207.825 77.247,207.426 77.579 C 207.082 77.864,206.800 78.594,206.800 79.200 C 206.800 79.806,206.532 80.525,206.204 80.797 C 205.828 81.109,205.696 81.642,205.846 82.242 C 206.012 82.903,205.889 83.268,205.442 83.439 C 205.005 83.607,204.800 84.182,204.800 85.243 C 204.800 86.381,204.634 86.800,204.182 86.800 C 203.699 86.800,203.618 87.089,203.812 88.126 C 203.991 89.077,203.883 89.599,203.431 89.975 C 203.059 90.283,202.800 91.122,202.800 92.016 C 202.800 92.873,202.582 93.607,202.300 93.703 C 202.018 93.799,201.800 94.533,201.800 95.387 C 201.800 96.485,201.580 97.025,201.000 97.351 C 200.560 97.598,200.129 97.841,200.043 97.890 C 199.957 97.940,200.103 98.242,200.369 98.562 C 201.097 99.440,200.758 102.163,199.900 102.326 C 199.329 102.434,199.200 102.167,199.200 100.878 C 199.200 99.953,198.948 99.089,198.592 98.794 C 198.169 98.442,198.058 97.899,198.226 97.000 C 198.407 96.037,198.308 95.650,197.834 95.468 C 196.993 95.146,197.019 93.263,197.878 92.314 C 198.515 91.610,198.514 91.581,197.872 91.828 C 196.779 92.247,195.924 91.255,196.220 89.908 C 196.408 89.055,196.291 88.608,195.783 88.237 C 195.302 87.885,195.145 87.358,195.269 86.514 C 195.399 85.626,195.244 85.170,194.696 84.828 C 194.132 84.475,194.007 84.079,194.193 83.230 C 194.373 82.415,194.269 82.035,193.821 81.863 C 193.457 81.724,193.200 81.144,193.200 80.462 C 193.200 79.822,192.914 79.061,192.566 78.771 C 192.139 78.417,192.005 77.877,192.156 77.122 C 192.320 76.298,192.223 76.000,191.790 76.000 C 191.407 76.000,191.200 75.597,191.200 74.849 C 191.200 74.216,190.917 73.463,190.572 73.177 C 190.227 72.890,190.033 72.317,190.141 71.903 C 190.254 71.472,190.095 71.058,189.769 70.933 C 189.456 70.813,189.200 70.271,189.200 69.729 C 189.200 69.186,188.920 68.463,188.577 68.120 C 188.234 67.777,188.044 67.263,188.153 66.978 C 188.263 66.692,188.093 66.243,187.776 65.980 C 187.459 65.717,187.200 65.302,187.200 65.057 C 187.200 64.634,185.517 60.880,184.753 59.600 C 184.556 59.270,184.293 58.730,184.168 58.400 C 184.044 58.070,183.775 57.487,183.571 57.105 C 183.367 56.723,183.200 56.158,183.200 55.848 C 183.200 55.539,182.910 55.174,182.555 55.038 C 182.145 54.881,181.985 54.499,182.117 53.995 C 182.252 53.480,182.127 53.200,181.763 53.200 C 181.453 53.200,181.200 53.016,181.200 52.792 C 181.200 52.568,180.750 51.671,180.200 50.800 C 179.650 49.929,179.200 48.962,179.200 48.651 C 179.200 48.340,178.911 47.975,178.558 47.839 C 178.206 47.704,178.014 47.340,178.133 47.030 C 178.252 46.720,178.133 46.383,177.868 46.282 C 177.604 46.180,177.124 45.580,176.802 44.948 C 176.480 44.317,175.808 43.243,175.308 42.562 C 174.809 41.881,174.395 41.161,174.389 40.962 C 174.383 40.763,173.843 40.075,173.189 39.433 C 172.535 38.792,171.998 38.072,171.997 37.833 C 171.995 37.595,171.365 36.737,170.597 35.927 C 169.828 35.116,169.200 34.294,169.200 34.099 C 169.200 33.904,168.705 33.187,168.100 32.507 C 167.495 31.827,166.190 30.317,165.200 29.152 C 161.361 24.635,152.050 16.000,151.019 16.000 C 150.755 16.000,150.117 15.550,149.600 15.000 C 149.083 14.450,148.444 14.000,148.179 14.000 C 147.915 14.000,147.488 13.747,147.231 13.437 C 146.974 13.127,146.141 12.579,145.382 12.218 C 144.622 11.857,144.000 11.391,144.000 11.181 C 144.000 10.972,143.655 10.800,143.233 10.800 C 142.812 10.800,142.407 10.665,142.333 10.500 C 142.160 10.109,137.936 7.986,137.349 7.994 C 137.101 7.997,136.674 7.730,136.400 7.400 C 136.126 7.070,135.586 6.800,135.200 6.800 C 134.814 6.800,134.283 6.541,134.020 6.224 C 133.757 5.907,133.308 5.737,133.022 5.847 C 132.737 5.956,132.223 5.766,131.880 5.423 C 131.537 5.080,130.789 4.800,130.216 4.800 C 129.643 4.800,129.077 4.544,128.956 4.230 C 128.801 3.826,128.342 3.725,127.376 3.881 C 126.347 4.048,125.953 3.943,125.764 3.451 C 125.591 3.000,125.024 2.800,123.920 2.800 C 122.679 2.800,122.280 2.628,122.122 2.025 C 121.954 1.383,121.751 1.314,120.934 1.625 C 118.795 2.438,116.774 2.030,116.277 0.683 C 116.057 0.088,115.867 0.043,115.165 0.419 C 114.592 0.726,113.004 0.786,110.259 0.605 C 106.033 0.327,99.305 0.279,92.800 0.482 C 90.710 0.547,88.674 0.442,88.276 0.248 C 87.712 -0.026,87.503 0.085,87.328 0.752 M156.800 18.600 C 157.546 19.370,158.247 20.000,158.357 20.000 C 158.467 20.000,157.946 19.370,157.200 18.600 C 156.454 17.830,155.753 17.200,155.643 17.200 C 155.533 17.200,156.054 17.830,156.800 18.600 " stroke="none" fill="#fc1414" fill-rule="evenodd"></path><path id="path1" d="M82.600 0.400 C 82.464 0.620,81.626 0.800,80.737 0.800 C 79.848 0.800,78.554 1.047,77.860 1.348 C 77.167 1.650,75.790 2.113,74.800 2.378 C 73.810 2.643,72.490 3.117,71.868 3.430 C 71.245 3.744,70.469 4.000,70.143 4.000 C 67.550 4.000,54.880 11.043,48.196 16.200 C 46.485 17.520,44.526 19.008,43.843 19.506 C 40.082 22.246,27.200 36.166,27.200 37.489 C 27.200 37.693,26.750 38.283,26.200 38.800 C 25.650 39.317,25.200 39.947,25.200 40.200 C 25.200 40.453,24.750 41.083,24.200 41.600 C 23.650 42.117,23.200 42.700,23.200 42.896 C 23.200 43.093,22.785 43.826,22.277 44.527 C 21.770 45.227,21.005 46.515,20.577 47.389 C 20.150 48.263,19.530 49.289,19.200 49.668 C 17.991 51.058,12.000 63.462,12.000 64.575 C 12.000 64.919,11.837 65.200,11.637 65.200 C 11.438 65.200,10.956 66.235,10.568 67.500 C 10.179 68.765,9.622 70.155,9.330 70.589 C 9.039 71.023,8.800 71.777,8.800 72.265 C 8.800 72.753,8.620 73.264,8.400 73.400 C 8.180 73.536,8.000 74.072,8.000 74.591 C 8.000 75.110,7.748 76.045,7.440 76.668 C 6.664 78.236,6.000 80.485,6.000 81.542 C 6.000 82.030,5.710 82.871,5.354 83.413 C 4.974 83.994,4.782 84.894,4.886 85.607 C 4.991 86.322,4.847 86.995,4.532 87.257 C 4.239 87.499,4.000 88.375,4.000 89.203 C 4.000 90.031,3.731 91.224,3.402 91.854 C 2.562 93.465,2.583 96.169,3.433 95.843 C 3.781 95.709,4.256 95.600,4.488 95.600 C 4.762 95.600,4.835 94.766,4.697 93.236 C 4.503 91.098,4.561 90.851,5.299 90.658 C 6.021 90.470,6.086 90.232,5.863 88.608 C 5.664 87.155,5.741 86.721,6.232 86.532 C 6.671 86.364,6.822 85.854,6.746 84.800 C 6.673 83.787,6.868 83.075,7.352 82.591 C 7.873 82.070,8.001 81.528,7.824 80.585 C 7.645 79.635,7.742 79.231,8.191 79.059 C 8.572 78.912,8.800 78.313,8.800 77.455 C 8.800 76.561,9.025 75.999,9.449 75.837 C 9.924 75.654,10.035 75.277,9.866 74.430 C 9.705 73.623,9.811 73.205,10.217 73.049 C 10.538 72.926,10.800 72.357,10.800 71.784 C 10.800 71.211,11.080 70.463,11.423 70.120 C 11.766 69.777,11.956 69.263,11.847 68.978 C 11.737 68.692,11.907 68.243,12.224 67.980 C 12.541 67.717,12.800 67.003,12.800 66.394 C 12.800 65.756,13.066 65.183,13.428 65.045 C 13.829 64.891,13.969 64.531,13.816 64.049 C 13.664 63.572,13.801 63.208,14.188 63.060 C 14.525 62.931,14.800 62.564,14.800 62.245 C 14.800 61.568,16.061 59.062,16.500 58.867 C 16.665 58.793,16.800 58.298,16.800 57.767 C 16.800 57.235,16.977 56.800,17.192 56.800 C 17.408 56.800,17.698 56.350,17.836 55.800 C 17.974 55.250,18.247 54.800,18.443 54.800 C 18.640 54.800,18.800 54.451,18.800 54.024 C 18.800 53.597,18.975 53.139,19.189 53.007 C 19.403 52.874,19.888 52.099,20.266 51.283 C 20.644 50.467,21.325 49.260,21.778 48.600 C 22.912 46.949,23.465 46.024,24.252 44.463 C 24.623 43.728,25.168 43.034,25.463 42.920 C 25.758 42.807,26.000 42.533,26.000 42.311 C 26.000 42.089,26.630 41.049,27.400 40.000 C 28.170 38.951,28.800 37.973,28.800 37.827 C 28.800 37.681,29.212 37.165,29.717 36.681 C 30.221 36.196,31.287 34.900,32.086 33.800 C 33.659 31.635,44.429 20.809,45.032 20.786 C 45.234 20.779,46.390 19.879,47.600 18.787 C 48.810 17.695,49.934 16.801,50.097 16.801 C 50.362 16.800,51.722 15.741,52.953 14.578 C 53.199 14.345,53.670 14.028,54.000 13.872 C 54.330 13.717,55.500 13.047,56.600 12.383 C 57.700 11.720,59.005 11.007,59.500 10.799 C 59.995 10.590,60.400 10.241,60.400 10.022 C 60.400 9.804,60.641 9.718,60.936 9.831 C 61.231 9.944,61.703 9.758,61.985 9.418 C 62.267 9.078,62.836 8.800,63.249 8.800 C 63.662 8.800,64.000 8.620,64.000 8.400 C 64.000 8.180,64.366 8.000,64.813 8.000 C 65.259 8.000,65.729 7.730,65.855 7.400 C 65.983 7.066,66.578 6.800,67.194 6.800 C 67.803 6.800,68.511 6.549,68.766 6.241 C 69.021 5.934,69.556 5.768,69.955 5.872 C 70.354 5.977,70.965 5.778,71.312 5.431 C 71.659 5.084,72.476 4.800,73.129 4.800 C 73.822 4.800,74.412 4.547,74.548 4.190 C 74.708 3.775,75.086 3.657,75.734 3.819 C 76.334 3.970,76.917 3.826,77.314 3.429 C 77.684 3.058,78.627 2.800,79.609 2.800 C 80.954 2.800,81.316 2.641,81.490 1.977 C 81.641 1.401,81.899 1.238,82.353 1.434 C 84.507 2.363,86.990 2.048,87.315 0.804 C 87.547 -0.085,83.134 -0.463,82.600 0.400 M88.800 0.400 C 89.535 0.875,95.095 0.875,96.200 0.400 C 96.714 0.179,95.426 0.048,92.600 0.034 C 89.621 0.019,88.394 0.137,88.800 0.400 M106.600 0.400 C 107.706 0.875,114.465 0.875,115.200 0.400 C 115.604 0.139,114.167 0.019,110.800 0.034 C 107.639 0.048,106.094 0.183,106.600 0.400 M116.283 0.700 C 116.774 2.029,118.807 2.434,120.934 1.625 C 121.751 1.314,121.954 1.383,122.122 2.025 C 122.280 2.628,122.679 2.800,123.920 2.800 C 125.024 2.800,125.591 3.000,125.764 3.451 C 125.953 3.943,126.347 4.048,127.376 3.881 C 128.342 3.725,128.801 3.826,128.956 4.230 C 129.077 4.544,129.643 4.800,130.216 4.800 C 130.789 4.800,131.537 5.080,131.880 5.423 C 132.223 5.766,132.737 5.956,133.022 5.847 C 133.308 5.737,133.757 5.907,134.020 6.224 C 134.283 6.541,134.814 6.800,135.200 6.800 C 135.586 6.800,136.126 7.070,136.400 7.400 C 136.674 7.730,137.101 7.997,137.349 7.994 C 137.936 7.986,142.160 10.109,142.333 10.500 C 142.407 10.665,142.812 10.800,143.233 10.800 C 143.655 10.800,144.000 10.972,144.000 11.181 C 144.000 11.391,144.622 11.857,145.382 12.218 C 146.141 12.579,146.974 13.127,147.231 13.437 C 147.488 13.747,147.915 14.000,148.179 14.000 C 148.444 14.000,149.083 14.450,149.600 15.000 C 150.117 15.550,150.755 16.000,151.019 16.000 C 152.050 16.000,161.361 24.635,165.200 29.152 C 166.190 30.317,167.495 31.827,168.100 32.507 C 168.705 33.187,169.200 33.904,169.200 34.099 C 169.200 34.294,169.828 35.116,170.597 35.927 C 171.365 36.737,171.995 37.595,171.997 37.833 C 171.998 38.072,172.535 38.792,173.189 39.433 C 173.843 40.075,174.383 40.763,174.389 40.962 C 174.395 41.161,174.809 41.881,175.308 42.562 C 175.808 43.243,176.480 44.317,176.802 44.948 C 177.124 45.580,177.604 46.180,177.868 46.282 C 178.133 46.383,178.252 46.720,178.133 47.030 C 178.014 47.340,178.206 47.704,178.558 47.839 C 178.911 47.975,179.200 48.340,179.200 48.651 C 179.200 48.962,179.650 49.929,180.200 50.800 C 180.750 51.671,181.200 52.568,181.200 52.792 C 181.200 53.016,181.453 53.200,181.763 53.200 C 182.127 53.200,182.252 53.480,182.117 53.995 C 181.985 54.499,182.145 54.881,182.555 55.038 C 182.910 55.174,183.200 55.539,183.200 55.848 C 183.200 56.363,183.563 57.211,184.465 58.800 C 184.652 59.130,184.910 59.670,185.038 60.000 C 185.166 60.330,185.705 61.503,186.235 62.606 C 186.766 63.709,187.200 64.812,187.200 65.057 C 187.200 65.302,187.459 65.717,187.776 65.980 C 188.093 66.243,188.263 66.692,188.153 66.978 C 188.044 67.263,188.234 67.777,188.577 68.120 C 188.920 68.463,189.200 69.186,189.200 69.729 C 189.200 70.271,189.456 70.813,189.769 70.933 C 190.095 71.058,190.254 71.472,190.141 71.903 C 190.033 72.317,190.227 72.890,190.572 73.177 C 190.917 73.463,191.200 74.216,191.200 74.849 C 191.200 75.597,191.407 76.000,191.790 76.000 C 192.223 76.000,192.320 76.298,192.156 77.122 C 192.005 77.877,192.139 78.417,192.566 78.771 C 192.914 79.061,193.200 79.822,193.200 80.462 C 193.200 81.144,193.457 81.724,193.821 81.863 C 194.269 82.035,194.373 82.415,194.193 83.230 C 194.007 84.079,194.132 84.475,194.696 84.828 C 195.244 85.170,195.399 85.626,195.269 86.514 C 195.145 87.358,195.302 87.885,195.783 88.237 C 196.291 88.608,196.408 89.055,196.220 89.908 C 195.929 91.232,196.773 92.249,197.827 91.845 C 198.553 91.566,198.290 89.306,197.448 88.600 C 197.186 88.380,197.036 87.882,197.116 87.493 C 197.242 86.881,196.736 85.109,195.604 82.200 C 195.433 81.760,194.965 80.320,194.564 79.000 C 194.164 77.680,193.693 76.429,193.518 76.220 C 193.343 76.011,193.200 75.522,193.200 75.134 C 193.200 74.745,192.905 73.746,192.545 72.914 C 192.184 72.081,191.752 71.040,191.585 70.600 C 191.418 70.160,190.981 69.080,190.614 68.200 C 190.246 67.320,189.798 66.240,189.617 65.800 C 188.608 63.341,182.611 51.379,182.331 51.267 C 182.149 51.193,182.000 50.870,182.000 50.547 C 182.000 50.046,180.934 48.132,178.899 44.977 C 178.624 44.549,178.236 43.840,178.037 43.400 C 177.839 42.960,177.300 42.203,176.838 41.717 C 176.377 41.231,176.000 40.716,176.000 40.573 C 176.000 40.246,172.068 34.743,171.447 34.200 C 171.195 33.980,170.650 33.271,170.236 32.625 C 168.987 30.676,163.340 24.333,160.955 22.200 C 159.725 21.100,157.508 19.075,156.027 17.700 C 154.547 16.325,153.169 15.200,152.964 15.200 C 152.759 15.200,152.144 14.787,151.596 14.282 C 150.276 13.064,142.773 8.422,140.000 7.106 C 135.484 4.964,133.235 4.000,132.725 3.987 C 132.436 3.980,131.851 3.710,131.424 3.387 C 130.996 3.064,130.242 2.800,129.747 2.800 C 129.252 2.800,128.736 2.620,128.600 2.400 C 128.464 2.180,127.983 2.000,127.530 2.000 C 127.078 2.000,125.783 1.711,124.654 1.357 C 120.688 0.116,120.126 0.000,118.084 0.000 C 116.291 0.000,116.059 0.091,116.283 0.700 M278.800 0.400 C 278.470 0.613,277.750 0.792,277.200 0.796 C 276.650 0.801,275.684 1.074,275.054 1.402 C 274.424 1.731,273.400 2.000,272.778 2.000 C 272.156 2.000,271.536 2.180,271.400 2.400 C 271.264 2.620,270.748 2.800,270.253 2.800 C 269.758 2.800,269.004 3.064,268.576 3.387 C 268.149 3.710,267.564 3.980,267.275 3.987 C 266.765 4.000,264.516 4.964,260.000 7.106 C 257.445 8.319,249.760 13.031,248.625 14.082 C 248.198 14.477,247.716 14.800,247.553 14.800 C 247.390 14.800,247.019 15.029,246.729 15.309 C 246.438 15.589,244.400 17.365,242.200 19.257 C 235.762 24.791,223.200 39.395,223.200 41.345 C 223.200 41.466,222.480 42.592,221.600 43.849 C 220.720 45.105,220.000 46.373,220.000 46.666 C 220.000 46.960,219.832 47.200,219.627 47.200 C 219.422 47.200,219.130 47.591,218.978 48.068 C 218.827 48.546,218.128 49.851,217.426 50.968 C 216.259 52.826,212.759 59.799,211.288 63.200 C 210.955 63.970,210.529 64.913,210.341 65.295 C 210.154 65.677,210.000 66.202,210.000 66.463 C 210.000 66.724,209.762 67.221,209.471 67.569 C 209.180 67.916,208.695 69.010,208.392 70.000 C 208.089 70.990,207.586 72.205,207.274 72.701 C 206.962 73.196,206.798 73.949,206.909 74.375 C 207.026 74.822,206.877 75.238,206.556 75.362 C 206.250 75.479,206.000 76.020,206.000 76.564 C 206.000 77.108,205.842 77.651,205.648 77.770 C 205.239 78.023,204.000 81.647,204.000 82.589 C 204.000 82.941,203.709 83.672,203.354 84.215 C 202.998 84.757,202.791 85.642,202.894 86.181 C 203.009 86.779,202.871 87.241,202.541 87.367 C 202.243 87.482,202.000 88.037,202.000 88.602 C 202.000 89.166,201.710 90.071,201.354 90.613 C 200.976 91.192,200.782 92.094,200.885 92.799 C 200.982 93.460,200.916 94.000,200.738 94.000 C 200.561 94.000,200.303 94.449,200.165 94.997 C 199.824 96.356,199.200 95.857,199.200 94.225 C 199.200 92.673,198.397 91.763,197.670 92.490 C 196.977 93.183,197.087 95.182,197.834 95.468 C 198.308 95.650,198.407 96.037,198.226 97.000 C 198.058 97.899,198.169 98.442,198.592 98.794 C 198.948 99.089,199.200 99.953,199.200 100.878 C 199.200 102.167,199.329 102.434,199.900 102.326 C 200.758 102.163,201.097 99.440,200.369 98.562 C 200.103 98.242,199.957 97.940,200.043 97.890 C 200.129 97.841,200.560 97.598,201.000 97.351 C 201.580 97.025,201.800 96.485,201.800 95.387 C 201.800 94.533,202.018 93.799,202.300 93.703 C 202.582 93.607,202.800 92.873,202.800 92.016 C 202.800 91.122,203.059 90.283,203.431 89.975 C 203.883 89.599,203.991 89.077,203.812 88.126 C 203.618 87.089,203.699 86.800,204.182 86.800 C 204.634 86.800,204.800 86.381,204.800 85.243 C 204.800 84.182,205.005 83.607,205.442 83.439 C 205.889 83.268,206.012 82.903,205.846 82.242 C 205.696 81.642,205.828 81.109,206.204 80.797 C 206.532 80.525,206.800 79.806,206.800 79.200 C 206.800 78.594,207.082 77.864,207.426 77.579 C 207.825 77.247,207.966 76.720,207.816 76.121 C 207.657 75.487,207.778 75.107,208.190 74.948 C 208.526 74.820,208.800 74.271,208.800 73.729 C 208.800 73.186,209.080 72.463,209.423 72.120 C 209.766 71.777,209.956 71.263,209.847 70.978 C 209.737 70.692,209.907 70.243,210.224 69.980 C 210.541 69.717,210.800 69.151,210.800 68.722 C 210.800 68.294,211.076 67.667,211.414 67.329 C 211.751 66.992,211.926 66.396,211.802 66.005 C 211.665 65.575,211.818 65.202,212.188 65.060 C 212.525 64.931,212.800 64.564,212.800 64.245 C 212.800 63.568,214.061 61.062,214.500 60.867 C 214.665 60.793,214.800 60.298,214.800 59.767 C 214.800 59.235,214.936 58.800,215.101 58.800 C 215.267 58.800,216.032 57.454,216.801 55.808 C 217.571 54.163,218.335 52.813,218.500 52.808 C 218.665 52.804,218.800 52.462,218.800 52.049 C 218.800 51.636,219.059 51.083,219.376 50.820 C 219.693 50.557,219.863 50.108,219.753 49.822 C 219.644 49.537,219.834 49.196,220.177 49.064 C 220.520 48.933,220.800 48.549,220.800 48.213 C 220.800 47.876,220.948 47.600,221.129 47.600 C 221.310 47.600,221.841 46.834,222.308 45.898 C 222.776 44.961,223.528 43.799,223.979 43.314 C 224.431 42.830,224.800 42.171,224.800 41.850 C 224.800 41.529,225.002 41.199,225.249 41.117 C 225.496 41.035,226.081 40.329,226.549 39.548 C 229.822 34.090,238.726 23.969,243.400 20.394 C 244.500 19.553,246.108 18.220,246.973 17.432 C 247.838 16.645,248.755 16.000,249.011 16.000 C 249.267 16.000,249.809 15.632,250.217 15.181 C 250.625 14.731,251.642 13.978,252.479 13.508 C 253.316 13.037,254.000 12.506,254.000 12.326 C 254.000 12.147,254.351 12.000,254.780 12.000 C 255.209 12.000,255.704 11.758,255.880 11.463 C 256.056 11.168,256.965 10.593,257.900 10.186 C 258.835 9.779,259.600 9.301,259.600 9.123 C 259.600 8.945,259.949 8.800,260.376 8.800 C 260.803 8.800,261.264 8.620,261.400 8.400 C 261.536 8.180,261.975 8.000,262.375 8.000 C 262.775 8.000,263.326 7.730,263.600 7.400 C 263.874 7.070,264.414 6.800,264.800 6.800 C 265.186 6.800,265.711 6.549,265.966 6.241 C 266.221 5.934,266.781 5.774,267.210 5.887 C 267.699 6.015,268.083 5.850,268.238 5.445 C 268.385 5.062,268.945 4.800,269.616 4.800 C 270.413 4.800,270.825 4.552,271.013 3.960 C 271.207 3.348,271.399 3.239,271.720 3.560 C 272.350 4.190,273.817 4.103,274.400 3.400 C 274.674 3.070,275.523 2.800,276.286 2.800 C 277.299 2.800,277.727 2.600,277.868 2.062 C 278.039 1.409,278.257 1.370,279.780 1.718 C 281.921 2.208,283.440 1.856,283.715 0.804 C 283.950 -0.094,280.060 -0.414,278.800 0.400 M284.600 0.400 C 284.900 0.886,292.269 0.886,293.400 0.400 C 293.907 0.182,292.400 0.046,289.276 0.028 C 286.089 0.010,284.440 0.141,284.600 0.400 M303.800 0.400 C 304.905 0.875,310.465 0.875,311.200 0.400 C 311.606 0.137,310.379 0.019,307.400 0.034 C 304.574 0.048,303.286 0.179,303.800 0.400 M312.685 0.804 C 313.010 2.048,315.493 2.363,317.647 1.434 C 318.101 1.238,318.359 1.401,318.510 1.977 C 318.684 2.641,319.046 2.800,320.391 2.800 C 321.364 2.800,322.316 3.058,322.678 3.421 C 323.088 3.831,323.672 3.960,324.399 3.800 C 325.185 3.628,325.567 3.736,325.737 4.179 C 325.876 4.543,326.456 4.800,327.138 4.800 C 327.778 4.800,328.537 5.083,328.823 5.428 C 329.110 5.773,329.665 5.972,330.057 5.869 C 330.450 5.767,330.992 5.949,331.263 6.275 C 331.555 6.627,332.199 6.803,332.850 6.707 C 333.656 6.589,333.995 6.738,334.135 7.273 C 334.242 7.684,334.690 8.000,335.163 8.000 C 335.623 8.000,336.000 8.180,336.000 8.400 C 336.000 8.620,336.338 8.800,336.751 8.800 C 337.164 8.800,337.733 9.078,338.015 9.418 C 338.297 9.758,338.769 9.944,339.064 9.831 C 339.359 9.718,339.600 9.781,339.600 9.972 C 339.600 10.163,340.307 10.688,341.171 11.138 C 343.342 12.270,344.564 12.964,344.800 13.200 C 345.438 13.838,350.030 16.800,350.380 16.800 C 350.611 16.800,350.800 16.945,350.800 17.123 C 350.800 17.301,351.526 17.976,352.413 18.623 C 353.300 19.270,354.425 20.125,354.913 20.523 C 356.597 21.895,367.200 32.552,367.200 32.872 C 367.200 33.182,367.722 33.836,370.100 36.508 C 370.705 37.188,371.200 37.967,371.200 38.239 C 371.200 38.511,371.350 38.793,371.533 38.867 C 371.976 39.044,375.804 44.408,376.124 45.300 C 376.262 45.685,376.561 46.000,376.787 46.000 C 377.014 46.000,377.200 46.298,377.200 46.662 C 377.200 47.026,377.618 47.881,378.129 48.562 C 378.641 49.243,379.175 50.115,379.317 50.500 C 379.459 50.885,379.755 51.200,379.975 51.200 C 380.195 51.200,380.282 51.441,380.169 51.736 C 380.056 52.031,380.242 52.503,380.582 52.785 C 380.922 53.067,381.200 53.636,381.200 54.049 C 381.200 54.462,381.345 54.800,381.523 54.800 C 381.831 54.800,383.200 57.546,383.200 58.163 C 383.200 58.325,383.472 58.729,383.804 59.061 C 384.136 59.393,384.318 59.810,384.208 59.987 C 384.098 60.164,384.277 60.532,384.604 60.804 C 384.932 61.076,385.200 61.642,385.200 62.062 C 385.200 62.481,385.450 62.921,385.756 63.038 C 386.061 63.156,386.228 63.573,386.125 63.966 C 386.022 64.359,386.222 64.965,386.569 65.312 C 386.916 65.659,387.200 66.406,387.200 66.971 C 387.200 67.650,387.419 68.000,387.843 68.000 C 388.325 68.000,388.425 68.244,388.243 68.971 C 388.090 69.581,388.222 70.165,388.600 70.542 C 388.930 70.873,389.200 71.584,389.200 72.122 C 389.200 72.661,389.474 73.329,389.809 73.607 C 390.172 73.909,390.319 74.424,390.173 74.885 C 390.033 75.327,390.187 75.945,390.533 76.329 C 390.865 76.698,391.197 77.630,391.269 78.400 C 391.412 79.923,392.859 80.476,393.122 79.107 C 393.265 78.367,390.148 68.857,389.554 68.220 C 389.359 68.011,389.200 67.595,389.200 67.295 C 389.200 66.996,388.734 65.727,388.165 64.475 C 387.596 63.224,386.894 61.660,386.606 61.000 C 384.428 56.020,380.949 49.501,380.344 49.267 C 380.155 49.193,379.989 48.833,379.975 48.467 C 379.953 47.872,379.126 46.514,375.059 40.401 C 374.431 39.457,373.486 38.286,372.959 37.797 C 372.431 37.308,372.000 36.700,372.000 36.445 C 372.000 36.191,371.319 35.221,370.486 34.291 C 369.653 33.361,368.505 31.970,367.935 31.200 C 366.523 29.292,357.965 20.710,356.105 19.337 C 355.277 18.727,353.969 17.677,353.199 17.004 C 351.711 15.705,346.198 12.004,343.200 10.292 C 339.564 8.215,335.195 6.000,334.735 6.000 C 334.476 6.000,333.979 5.762,333.631 5.471 C 333.284 5.180,332.190 4.709,331.200 4.423 C 330.210 4.138,328.860 3.671,328.200 3.387 C 327.540 3.103,326.190 2.651,325.200 2.383 C 324.210 2.115,322.833 1.650,322.140 1.348 C 321.446 1.047,320.152 0.800,319.263 0.800 C 318.374 0.800,317.536 0.620,317.400 0.400 C 316.866 -0.463,312.453 -0.085,312.685 0.804 M392.394 80.811 C 391.894 81.745,392.170 83.600,392.808 83.600 C 393.023 83.600,393.200 84.416,393.200 85.413 C 393.200 86.698,393.384 87.296,393.834 87.468 C 394.314 87.653,394.407 88.036,394.217 89.050 C 393.936 90.549,394.525 92.000,395.414 92.000 C 396.082 92.000,396.199 92.630,395.600 93.000 C 394.844 93.467,395.125 96.732,395.960 97.179 C 397.249 97.869,397.722 94.793,396.629 92.820 C 396.331 92.281,396.170 91.623,396.272 91.357 C 396.374 91.090,396.248 90.181,395.991 89.336 C 395.734 88.491,395.373 87.080,395.188 86.200 C 393.995 80.511,393.286 79.145,392.394 80.811 M2.249 97.016 C 1.655 98.565,1.970 102.064,2.692 101.925 C 3.072 101.852,3.555 101.304,3.765 100.707 C 4.459 98.735,2.976 95.123,2.249 97.016 M396.355 99.100 C 395.983 100.065,396.052 103.394,396.453 103.782 C 397.458 104.755,398.199 104.076,398.179 102.200 C 398.153 99.785,397.729 98.000,397.182 98.000 C 396.961 98.000,396.589 98.495,396.355 99.100 M1.228 103.948 C 0.993 104.388,0.800 106.221,0.800 108.022 L 0.800 111.298 1.700 110.702 C 2.845 109.943,3.265 104.484,2.244 103.636 C 1.766 103.240,1.575 103.299,1.228 103.948 M397.626 105.768 C 396.962 106.569,397.187 114.549,397.893 115.254 C 398.779 116.138,399.000 115.204,399.000 110.588 C 399.000 105.919,398.617 104.575,397.626 105.768 M0.178 114.604 C -0.522 119.278,0.294 131.866,1.237 130.923 C 1.717 130.443,2.113 117.443,1.720 115.033 C 1.296 112.431,0.536 112.220,0.178 114.604 M398.536 119.681 C 398.137 120.297,398.153 131.763,398.555 133.362 C 399.354 136.547,400.000 133.615,400.000 126.800 C 400.000 120.084,399.583 118.059,398.536 119.681 M0.884 139.481 C 1.002 144.039,1.540 145.773,2.411 144.397 C 3.063 143.364,2.893 136.575,2.200 136.000 C 1.870 135.726,1.597 135.659,1.594 135.851 C 1.591 136.043,1.403 135.930,1.178 135.600 C 0.890 135.178,0.803 136.330,0.884 139.481 M397.614 137.174 C 396.977 138.363,397.091 144.099,397.770 145.024 C 398.596 146.148,399.202 144.383,399.195 140.874 C 399.186 136.767,398.585 135.360,397.614 137.174 M2.000 148.151 C 2.000 151.148,2.876 152.504,3.593 150.617 C 4.422 148.437,3.853 145.600,2.586 145.600 C 2.133 145.600,2.000 146.177,2.000 148.151 M396.427 146.750 C 395.520 148.444,396.486 152.742,397.499 151.521 C 398.313 150.541,398.335 146.257,397.527 146.090 C 397.157 146.014,396.662 146.311,396.427 146.750 M2.800 153.936 C 2.800 156.157,3.714 157.795,4.397 156.800 C 5.171 155.672,4.709 152.727,3.700 152.357 C 2.846 152.043,2.800 152.124,2.800 153.936 M395.680 152.880 C 395.091 153.469,395.052 155.776,395.614 156.826 C 395.960 157.472,395.895 157.600,395.222 157.600 C 394.231 157.600,393.770 159.109,394.286 160.658 C 395.048 162.945,395.696 162.291,396.401 158.518 C 396.599 157.463,396.879 156.108,397.025 155.507 C 397.535 153.405,396.729 151.831,395.680 152.880 M4.000 159.376 C 4.000 160.353,4.180 161.264,4.400 161.400 C 4.620 161.536,4.800 162.322,4.800 163.147 C 4.800 163.972,5.064 164.996,5.387 165.424 C 5.710 165.851,5.980 166.864,5.987 167.676 C 5.994 168.488,6.180 169.264,6.400 169.400 C 6.620 169.536,6.800 170.142,6.800 170.747 C 6.800 171.352,7.064 172.196,7.387 172.624 C 7.710 173.051,7.980 173.884,7.987 174.476 C 7.994 175.068,8.180 175.664,8.400 175.800 C 8.620 175.936,8.800 176.414,8.800 176.862 C 8.800 177.310,9.047 178.154,9.349 178.738 C 10.036 180.068,10.800 182.457,10.800 183.279 C 10.800 183.622,11.070 184.126,11.400 184.400 C 11.730 184.674,12.000 185.238,12.000 185.654 C 12.000 186.070,12.154 186.723,12.341 187.105 C 13.380 189.220,14.035 190.822,14.628 192.700 C 14.993 193.855,15.451 194.800,15.646 194.800 C 15.841 194.800,16.000 195.081,16.000 195.425 C 16.000 196.015,16.829 198.024,18.960 202.600 C 19.472 203.700,20.478 205.860,21.195 207.400 C 22.643 210.512,26.788 218.814,28.284 221.600 C 28.816 222.590,30.109 225.020,31.159 227.000 C 33.870 232.116,35.310 234.579,35.680 234.733 C 35.856 234.807,36.000 235.092,36.000 235.367 C 36.000 235.774,38.730 240.634,40.401 243.200 C 40.616 243.530,41.155 244.430,41.600 245.200 C 42.045 245.970,42.631 246.951,42.904 247.380 C 43.177 247.810,44.255 249.520,45.300 251.180 C 46.344 252.841,47.380 254.470,47.601 254.800 C 47.821 255.130,48.751 256.570,49.666 258.000 C 50.582 259.430,51.436 260.690,51.565 260.800 C 51.694 260.910,52.070 261.473,52.400 262.051 C 53.526 264.025,55.319 266.600,55.660 266.733 C 55.847 266.807,56.000 267.040,56.000 267.253 C 56.000 267.651,58.992 272.140,59.928 273.145 C 60.218 273.457,60.756 274.182,61.124 274.756 C 61.952 276.050,64.141 279.064,65.223 280.400 C 65.668 280.950,66.430 281.962,66.916 282.650 C 68.086 284.303,71.158 288.340,72.036 289.376 C 72.420 289.829,73.929 291.730,75.390 293.600 C 76.851 295.470,78.654 297.720,79.397 298.600 C 80.140 299.480,81.345 300.952,82.074 301.872 C 84.532 304.970,88.566 309.796,89.204 310.400 C 89.552 310.730,91.806 313.250,94.212 316.000 C 99.223 321.727,122.310 344.935,126.800 348.758 C 128.450 350.164,131.060 352.447,132.600 353.832 C 136.404 357.254,141.051 361.229,142.384 362.200 C 142.988 362.640,144.364 363.749,145.441 364.665 C 148.520 367.282,151.719 369.799,153.013 370.625 C 153.666 371.041,154.290 371.488,154.400 371.619 C 154.695 371.969,159.082 375.252,160.723 376.351 C 161.504 376.874,162.505 377.639,162.947 378.051 C 163.389 378.463,163.869 378.800,164.013 378.800 C 164.158 378.800,164.799 379.250,165.438 379.800 C 166.077 380.349,166.722 380.799,166.871 380.800 C 167.021 380.800,167.381 381.031,167.671 381.313 C 168.304 381.927,177.080 387.706,182.400 391.012 C 184.490 392.311,186.260 393.514,186.333 393.687 C 186.407 393.859,186.734 394.000,187.060 394.000 C 187.386 394.000,188.226 394.434,188.927 394.965 C 189.627 395.496,191.191 396.443,192.402 397.068 C 193.613 397.694,195.171 398.610,195.864 399.103 C 197.543 400.298,201.978 400.339,203.800 399.175 C 204.460 398.754,205.270 398.284,205.600 398.132 C 205.930 397.981,208.314 396.539,210.897 394.928 C 213.480 393.318,215.775 392.000,215.997 392.000 C 216.219 392.000,216.400 391.861,216.400 391.691 C 216.400 391.521,217.075 391.026,217.900 390.591 C 218.725 390.156,219.580 389.665,219.800 389.501 C 220.020 389.337,223.260 387.168,227.000 384.683 C 234.275 379.848,242.141 374.259,243.295 373.105 C 243.683 372.717,244.167 372.400,244.371 372.400 C 244.576 372.400,244.981 372.168,245.271 371.884 C 245.562 371.601,246.700 370.691,247.800 369.863 C 248.900 369.034,250.520 367.736,251.400 366.977 C 252.280 366.219,254.530 364.410,256.400 362.957 C 258.270 361.503,260.714 359.479,261.832 358.457 C 262.950 357.436,264.558 356.060,265.406 355.400 C 266.253 354.740,268.219 353.010,269.774 351.556 C 271.328 350.101,273.680 348.010,275.000 346.908 C 278.324 344.133,299.787 322.638,303.865 318.000 C 305.702 315.910,308.385 312.850,309.827 311.200 C 311.268 309.550,313.472 307.056,314.724 305.658 C 315.975 304.260,317.275 302.696,317.611 302.183 C 317.948 301.669,318.938 300.473,319.812 299.525 C 320.685 298.576,321.892 297.141,322.494 296.335 C 323.096 295.529,323.825 294.629,324.114 294.335 C 324.738 293.700,327.922 289.527,328.855 288.120 C 329.215 287.577,329.994 286.525,330.586 285.782 C 332.943 282.826,339.341 274.122,341.419 271.044 C 341.849 270.408,342.560 269.394,343.000 268.790 C 343.440 268.187,345.396 265.287,347.347 262.346 C 349.298 259.406,351.413 256.251,352.047 255.335 C 352.681 254.419,353.200 253.569,353.200 253.447 C 353.200 253.252,355.035 250.393,357.263 247.116 C 357.668 246.520,358.000 245.933,358.000 245.812 C 358.000 245.691,358.900 244.155,360.000 242.400 C 361.100 240.645,362.000 239.120,362.000 239.012 C 362.000 238.904,362.636 237.822,363.413 236.607 C 364.190 235.392,364.944 234.083,365.089 233.699 C 365.233 233.315,365.947 232.064,366.676 230.919 C 367.404 229.775,368.000 228.736,368.000 228.611 C 368.000 228.486,368.450 227.671,369.000 226.800 C 369.550 225.929,370.000 224.942,370.000 224.608 C 370.000 224.274,370.142 224.000,370.317 224.000 C 370.491 224.000,370.907 223.415,371.242 222.700 C 371.576 221.985,373.028 219.060,374.469 216.200 C 377.946 209.294,380.952 202.946,382.614 199.000 C 382.892 198.340,383.587 196.807,384.160 195.594 C 384.732 194.381,385.200 193.214,385.200 193.000 C 385.200 192.666,386.498 189.749,387.645 187.505 C 387.840 187.123,388.006 186.493,388.013 186.105 C 388.020 185.717,388.290 185.051,388.613 184.624 C 388.936 184.196,389.200 183.519,389.200 183.118 C 389.200 182.717,389.364 182.077,389.565 181.695 C 389.765 181.313,390.229 180.100,390.596 179.000 C 390.962 177.900,391.414 176.640,391.601 176.200 C 392.340 174.451,393.301 170.768,393.077 170.543 C 392.945 170.412,393.092 170.050,393.403 169.740 C 393.714 169.429,394.075 168.505,394.206 167.687 C 394.337 166.869,394.614 165.887,394.822 165.505 C 395.304 164.620,395.313 162.517,394.836 162.222 C 393.827 161.599,393.111 162.529,393.301 164.217 C 393.452 165.562,393.329 166.054,392.707 166.587 C 392.100 167.107,391.978 167.559,392.170 168.583 C 392.359 169.586,392.264 169.967,391.779 170.153 C 391.355 170.316,391.180 170.782,391.259 171.538 C 391.330 172.219,391.101 172.957,390.689 173.368 C 390.233 173.824,390.082 174.386,390.242 175.025 C 390.412 175.704,390.293 176.066,389.842 176.239 C 389.452 176.389,389.200 176.952,389.200 177.671 C 389.200 178.324,388.917 179.140,388.571 179.486 C 388.190 179.867,388.031 180.470,388.168 181.016 C 388.316 181.605,388.188 181.996,387.797 182.146 C 387.469 182.272,387.200 182.843,387.200 183.416 C 387.200 183.989,386.938 184.719,386.617 185.040 C 386.296 185.361,386.125 185.859,386.235 186.147 C 386.346 186.436,386.158 186.903,385.818 187.185 C 385.478 187.467,385.200 188.104,385.200 188.600 C 385.200 189.096,384.949 189.711,384.641 189.966 C 384.334 190.221,384.169 190.758,384.274 191.160 C 384.386 191.591,384.206 191.989,383.832 192.132 C 383.485 192.266,383.194 192.696,383.187 193.087 C 383.180 193.479,382.909 194.151,382.585 194.579 C 382.261 195.007,382.092 195.661,382.210 196.032 C 382.334 196.422,382.167 196.804,381.812 196.940 C 381.475 197.069,381.194 197.496,381.187 197.887 C 381.180 198.279,380.916 198.942,380.600 199.359 C 380.284 199.776,380.108 200.251,380.208 200.414 C 380.309 200.576,380.123 200.932,379.796 201.204 C 379.468 201.476,379.200 201.919,379.200 202.189 C 379.200 202.460,378.750 203.527,378.200 204.562 C 377.650 205.596,377.200 206.681,377.200 206.972 C 377.200 207.264,376.922 207.733,376.582 208.015 C 376.242 208.297,376.059 208.776,376.175 209.079 C 376.291 209.382,376.120 209.733,375.793 209.858 C 375.467 209.983,375.200 210.497,375.200 211.000 C 375.200 211.503,374.911 212.025,374.558 212.161 C 374.206 212.296,374.015 212.662,374.135 212.974 C 374.254 213.286,374.093 213.757,373.776 214.020 C 373.459 214.283,373.200 214.817,373.200 215.206 C 373.200 215.596,372.911 216.025,372.558 216.161 C 372.206 216.296,372.015 216.662,372.135 216.974 C 372.254 217.286,372.093 217.757,371.776 218.020 C 371.459 218.283,371.200 218.817,371.200 219.206 C 371.200 219.596,370.911 220.025,370.558 220.161 C 370.184 220.304,370.015 220.661,370.152 221.019 C 370.285 221.365,370.129 221.729,369.793 221.858 C 369.467 221.983,369.200 222.426,369.200 222.843 C 369.200 223.259,369.038 223.600,368.840 223.600 C 368.641 223.600,368.146 224.409,367.740 225.399 C 367.333 226.388,366.865 227.198,366.700 227.199 C 366.535 227.199,366.400 227.566,366.400 228.013 C 366.400 228.459,366.130 228.929,365.800 229.055 C 365.470 229.182,365.200 229.626,365.200 230.043 C 365.200 230.459,365.038 230.800,364.839 230.800 C 364.641 230.800,364.286 231.295,364.051 231.900 C 363.815 232.505,363.170 233.720,362.616 234.600 C 362.062 235.480,361.427 236.560,361.205 237.000 C 360.781 237.841,360.259 238.699,359.100 240.460 C 358.715 241.045,358.400 241.811,358.400 242.162 C 358.400 242.513,358.228 242.800,358.019 242.800 C 357.809 242.800,357.343 243.422,356.982 244.182 C 356.621 244.941,356.073 245.774,355.763 246.031 C 355.453 246.288,355.200 246.668,355.200 246.876 C 355.200 247.083,354.750 247.843,354.200 248.564 C 353.650 249.286,353.200 250.006,353.200 250.164 C 353.200 250.323,352.750 251.043,352.200 251.764 C 351.650 252.486,351.200 253.284,351.200 253.538 C 351.200 253.792,351.014 254.000,350.787 254.000 C 350.561 254.000,350.257 254.315,350.113 254.700 C 349.969 255.085,349.074 256.617,348.125 258.104 C 347.176 259.591,346.400 260.977,346.400 261.184 C 346.400 261.391,346.156 261.704,345.858 261.880 C 345.560 262.056,344.813 263.010,344.198 264.000 C 343.584 264.990,342.972 265.890,342.840 266.000 C 342.481 266.299,339.200 271.130,339.200 271.360 C 339.200 271.469,338.750 272.044,338.200 272.638 C 337.650 273.231,337.200 273.946,337.200 274.225 C 337.200 274.505,337.054 274.793,336.875 274.867 C 336.696 274.940,335.762 276.080,334.800 277.400 C 333.838 278.720,332.899 279.862,332.714 279.937 C 332.530 280.012,332.034 280.732,331.613 281.537 C 331.192 282.342,330.296 283.575,329.624 284.278 C 328.951 284.981,328.397 285.701,328.394 285.878 C 328.391 286.055,327.671 286.996,326.794 287.968 C 325.917 288.940,325.200 289.910,325.200 290.122 C 325.200 290.334,324.788 290.890,324.285 291.356 C 323.781 291.823,322.639 293.194,321.746 294.403 C 320.853 295.612,319.805 296.863,319.419 297.184 C 319.032 297.505,318.034 298.765,317.200 299.984 C 316.366 301.203,315.102 302.740,314.390 303.400 C 313.679 304.060,312.573 305.320,311.932 306.200 C 311.291 307.080,309.552 309.060,308.066 310.600 C 306.580 312.140,304.567 314.390,303.592 315.600 C 300.910 318.928,277.106 342.843,273.000 346.335 C 271.020 348.019,268.320 350.420,267.000 351.672 C 265.680 352.924,263.880 354.475,263.000 355.120 C 262.120 355.764,260.950 356.782,260.400 357.382 C 259.850 357.982,258.500 359.128,257.400 359.930 C 256.300 360.731,254.731 361.998,253.914 362.744 C 253.097 363.491,251.908 364.484,251.272 364.951 C 250.635 365.418,248.717 366.880,247.008 368.200 C 245.299 369.520,243.609 370.780,243.251 371.000 C 242.893 371.220,242.510 371.510,242.400 371.645 C 242.290 371.779,240.130 373.386,237.600 375.214 C 235.070 377.043,232.940 378.688,232.867 378.870 C 232.793 379.051,232.470 379.200,232.149 379.200 C 231.828 379.200,231.080 379.650,230.487 380.200 C 229.893 380.750,229.224 381.200,229.000 381.200 C 228.776 381.200,228.107 381.650,227.513 382.200 C 226.920 382.750,226.309 383.200,226.155 383.200 C 226.001 383.200,225.286 383.650,224.564 384.200 C 223.843 384.750,223.105 385.200,222.923 385.200 C 222.741 385.200,222.107 385.650,221.513 386.200 C 220.920 386.750,220.240 387.200,220.001 387.200 C 219.762 387.200,219.169 387.577,218.683 388.038 C 218.197 388.500,217.440 389.039,217.000 389.237 C 216.560 389.436,215.850 389.824,215.422 390.099 C 212.575 391.931,209.293 393.891,208.700 394.113 C 208.315 394.257,208.000 394.561,208.000 394.787 C 208.000 395.014,207.662 395.200,207.249 395.200 C 206.836 395.200,206.288 395.453,206.031 395.763 C 205.774 396.073,204.941 396.621,204.182 396.982 C 203.422 397.343,202.800 397.809,202.800 398.019 C 202.800 398.228,202.528 398.400,202.195 398.400 C 201.862 398.400,201.252 398.610,200.841 398.867 C 200.074 399.346,197.564 398.512,196.993 397.589 C 196.861 397.375,196.403 397.200,195.976 397.200 C 195.549 397.200,195.200 397.019,195.200 396.799 C 195.200 396.578,194.480 396.086,193.600 395.704 C 192.720 395.323,192.000 394.874,192.000 394.706 C 192.000 394.538,191.634 394.400,191.187 394.400 C 190.741 394.400,190.271 394.130,190.145 393.800 C 190.018 393.470,189.617 393.200,189.253 393.200 C 188.889 393.200,188.107 392.750,187.513 392.200 C 186.920 391.650,186.157 391.200,185.817 391.200 C 185.478 391.200,185.200 391.028,185.200 390.819 C 185.200 390.609,184.525 390.124,183.700 389.740 C 182.875 389.357,182.056 388.808,181.880 388.522 C 181.704 388.235,181.393 388.000,181.188 388.000 C 180.983 388.000,179.803 387.325,178.565 386.500 C 177.328 385.675,175.848 384.730,175.276 384.400 C 174.705 384.070,173.781 383.395,173.223 382.900 C 172.665 382.405,172.015 382.000,171.780 382.000 C 171.544 382.000,170.999 381.685,170.569 381.300 C 170.139 380.915,168.495 379.722,166.914 378.649 C 165.334 377.576,163.709 376.388,163.302 376.010 C 162.896 375.631,162.371 375.249,162.137 375.161 C 161.902 375.072,161.190 374.595,160.555 374.100 C 159.920 373.605,158.834 372.795,158.142 372.300 C 154.921 369.996,153.001 368.549,152.413 367.986 C 152.060 367.648,151.058 366.842,150.186 366.196 C 149.314 365.549,147.640 364.160,146.468 363.110 C 145.295 362.059,144.156 361.200,143.937 361.200 C 143.718 361.200,143.002 360.664,142.347 360.009 C 141.692 359.353,140.311 358.146,139.278 357.325 C 138.245 356.504,136.230 354.738,134.800 353.402 C 133.370 352.065,131.305 350.258,130.212 349.386 C 124.692 344.983,98.999 319.289,94.616 313.788 C 93.745 312.695,91.846 310.540,90.397 309.000 C 88.948 307.460,87.296 305.570,86.724 304.800 C 86.153 304.030,84.857 302.504,83.843 301.409 C 82.829 300.314,82.000 299.274,82.000 299.100 C 82.000 298.925,81.319 298.021,80.486 297.091 C 79.653 296.161,78.448 294.680,77.809 293.800 C 77.170 292.920,76.231 291.804,75.723 291.319 C 75.215 290.835,74.800 290.264,74.800 290.051 C 74.800 289.839,73.927 288.705,72.861 287.532 C 71.794 286.360,70.849 285.200,70.761 284.955 C 70.672 284.710,70.010 283.810,69.290 282.955 C 67.749 281.126,65.667 278.309,64.749 276.810 C 64.392 276.226,63.627 275.238,63.049 274.616 C 62.472 273.993,62.000 273.262,62.000 272.991 C 62.000 272.720,61.706 272.254,61.346 271.955 C 60.986 271.656,60.239 270.689,59.687 269.806 C 59.135 268.923,58.440 268.056,58.142 267.880 C 57.844 267.704,57.600 267.368,57.600 267.134 C 57.600 266.899,56.970 265.849,56.200 264.800 C 55.430 263.751,54.800 262.774,54.800 262.629 C 54.800 262.484,54.350 261.880,53.800 261.287 C 53.250 260.693,52.800 260.059,52.800 259.877 C 52.800 259.695,52.350 258.957,51.800 258.236 C 51.250 257.514,50.800 256.731,50.800 256.496 C 50.800 256.260,50.665 256.007,50.500 255.933 C 50.093 255.753,48.000 252.507,48.000 252.058 C 48.000 251.860,47.747 251.488,47.437 251.231 C 47.127 250.974,46.579 250.141,46.218 249.382 C 45.857 248.622,45.391 248.000,45.181 248.000 C 44.972 248.000,44.800 247.640,44.800 247.200 C 44.800 246.760,44.620 246.400,44.400 246.400 C 44.180 246.400,44.000 246.124,44.000 245.787 C 44.000 245.451,43.730 245.071,43.400 244.945 C 43.070 244.818,42.800 244.396,42.800 244.006 C 42.800 243.617,42.530 243.074,42.200 242.800 C 41.870 242.526,41.600 242.080,41.600 241.809 C 41.600 241.538,41.185 240.869,40.679 240.323 C 40.172 239.776,39.827 239.120,39.912 238.864 C 39.997 238.609,39.782 238.291,39.433 238.157 C 39.085 238.024,38.800 237.636,38.800 237.295 C 38.800 236.954,38.385 236.119,37.877 235.438 C 37.369 234.757,36.644 233.533,36.266 232.717 C 35.888 231.901,35.403 231.126,35.189 230.993 C 34.975 230.861,34.800 230.403,34.800 229.976 C 34.800 229.549,34.640 229.200,34.443 229.200 C 34.247 229.200,33.974 228.750,33.836 228.200 C 33.698 227.650,33.408 227.200,33.192 227.200 C 32.977 227.200,32.800 226.840,32.800 226.400 C 32.800 225.960,32.640 225.600,32.443 225.600 C 32.247 225.600,31.974 225.150,31.836 224.600 C 31.698 224.050,31.408 223.600,31.192 223.600 C 30.977 223.600,30.800 223.358,30.800 223.061 C 30.800 222.259,29.598 220.000,29.171 220.000 C 28.967 220.000,28.800 219.550,28.800 219.000 C 28.800 218.450,28.620 218.000,28.400 218.000 C 28.180 218.000,28.000 217.634,28.000 217.187 C 28.000 216.741,27.730 216.271,27.400 216.145 C 27.070 216.018,26.800 215.596,26.800 215.206 C 26.800 214.817,26.532 214.276,26.204 214.004 C 25.877 213.732,25.698 213.364,25.808 213.187 C 25.918 213.010,25.736 212.593,25.404 212.261 C 25.072 211.929,24.800 211.385,24.800 211.052 C 24.800 210.719,24.620 210.336,24.400 210.200 C 24.180 210.064,24.000 209.598,24.000 209.164 C 24.000 208.730,23.730 208.271,23.400 208.145 C 23.070 208.018,22.800 207.503,22.800 207.000 C 22.800 206.497,22.533 205.983,22.207 205.858 C 21.880 205.733,21.711 205.377,21.830 205.067 C 21.949 204.757,21.766 204.223,21.423 203.880 C 21.080 203.537,20.800 203.035,20.800 202.763 C 20.800 201.995,19.485 199.200,19.123 199.200 C 18.945 199.200,18.800 198.744,18.800 198.187 C 18.800 197.631,18.550 197.079,18.244 196.962 C 17.939 196.844,17.772 196.427,17.875 196.034 C 17.978 195.641,17.778 195.035,17.431 194.688 C 17.084 194.341,16.800 193.706,16.800 193.278 C 16.800 192.849,16.541 192.283,16.224 192.020 C 15.907 191.757,15.737 191.308,15.847 191.022 C 15.956 190.737,15.766 190.223,15.423 189.880 C 15.080 189.537,14.800 188.814,14.800 188.271 C 14.800 187.729,14.518 187.177,14.172 187.045 C 13.775 186.892,13.632 186.531,13.781 186.058 C 13.918 185.627,13.761 185.100,13.409 184.807 C 13.074 184.529,12.800 183.784,12.800 183.151 C 12.800 182.388,12.595 182.000,12.192 182.000 C 11.754 182.000,11.651 181.738,11.821 181.058 C 11.970 180.466,11.823 179.880,11.429 179.486 C 11.083 179.140,10.800 178.299,10.800 177.616 C 10.800 176.898,10.554 176.281,10.217 176.151 C 9.816 175.997,9.705 175.577,9.860 174.801 C 10.030 173.948,9.897 173.573,9.309 173.258 C 8.715 172.941,8.576 172.542,8.720 171.567 C 8.850 170.678,8.717 170.185,8.279 169.940 C 7.823 169.685,7.712 169.217,7.873 168.227 C 8.044 167.175,7.924 166.760,7.347 166.399 C 6.763 166.034,6.630 165.555,6.737 164.205 C 6.852 162.763,6.743 162.436,6.077 162.225 C 5.387 162.005,5.337 161.822,5.701 160.856 C 6.280 159.322,5.800 157.600,4.792 157.600 C 4.121 157.600,4.000 157.872,4.000 159.376 " stroke="none" fill="#fc6b6b" fill-rule="evenodd"></path></g></svg>